<mxfile host="app.diagrams.net" agent="Mozilla/5.0 (Windows NT 10.0; Win64; x64) AppleWebKit/537.36 (KHTML, like Gecko) Chrome/127.0.0.0 Safari/537.36" version="24.7.6">
  <diagram name="Página-1" id="3fKgyCRNdXEo-sG83wbw">
    <mxGraphModel dx="1434" dy="780" grid="1" gridSize="10" guides="1" tooltips="1" connect="1" arrows="1" fold="1" page="1" pageScale="1" pageWidth="827" pageHeight="1169" math="0" shadow="0">
      <root>
        <mxCell id="0" />
        <mxCell id="1" parent="0" />
        <mxCell id="WMqTVKStwHXneMCG5cs7-10" style="edgeStyle=orthogonalEdgeStyle;rounded=0;orthogonalLoop=1;jettySize=auto;html=1;entryX=0;entryY=0.5;entryDx=0;entryDy=0;" edge="1" parent="1" source="WMqTVKStwHXneMCG5cs7-1" target="WMqTVKStwHXneMCG5cs7-3">
          <mxGeometry relative="1" as="geometry" />
        </mxCell>
        <mxCell id="WMqTVKStwHXneMCG5cs7-31" style="edgeStyle=orthogonalEdgeStyle;rounded=0;orthogonalLoop=1;jettySize=auto;html=1;entryX=0;entryY=0.5;entryDx=0;entryDy=0;" edge="1" parent="1" source="WMqTVKStwHXneMCG5cs7-1" target="WMqTVKStwHXneMCG5cs7-29">
          <mxGeometry relative="1" as="geometry" />
        </mxCell>
        <mxCell id="WMqTVKStwHXneMCG5cs7-39" style="edgeStyle=orthogonalEdgeStyle;rounded=0;orthogonalLoop=1;jettySize=auto;html=1;entryX=0;entryY=0.5;entryDx=0;entryDy=0;" edge="1" parent="1" source="WMqTVKStwHXneMCG5cs7-1" target="WMqTVKStwHXneMCG5cs7-37">
          <mxGeometry relative="1" as="geometry" />
        </mxCell>
        <mxCell id="WMqTVKStwHXneMCG5cs7-1" value="Aluno&lt;div&gt;Ator Secundário&lt;/div&gt;" style="shape=umlActor;verticalLabelPosition=bottom;verticalAlign=top;html=1;outlineConnect=0;" vertex="1" parent="1">
          <mxGeometry x="30" y="355" width="50" height="90" as="geometry" />
        </mxCell>
        <mxCell id="WMqTVKStwHXneMCG5cs7-11" style="edgeStyle=orthogonalEdgeStyle;rounded=0;orthogonalLoop=1;jettySize=auto;html=1;entryX=1;entryY=0.5;entryDx=0;entryDy=0;" edge="1" parent="1" source="WMqTVKStwHXneMCG5cs7-2" target="WMqTVKStwHXneMCG5cs7-3">
          <mxGeometry relative="1" as="geometry" />
        </mxCell>
        <mxCell id="WMqTVKStwHXneMCG5cs7-12" style="edgeStyle=orthogonalEdgeStyle;rounded=0;orthogonalLoop=1;jettySize=auto;html=1;entryX=1;entryY=0.5;entryDx=0;entryDy=0;" edge="1" parent="1" source="WMqTVKStwHXneMCG5cs7-2" target="WMqTVKStwHXneMCG5cs7-9">
          <mxGeometry relative="1" as="geometry" />
        </mxCell>
        <mxCell id="WMqTVKStwHXneMCG5cs7-22" style="edgeStyle=orthogonalEdgeStyle;rounded=0;orthogonalLoop=1;jettySize=auto;html=1;entryX=1;entryY=0.5;entryDx=0;entryDy=0;" edge="1" parent="1" source="WMqTVKStwHXneMCG5cs7-2" target="WMqTVKStwHXneMCG5cs7-17">
          <mxGeometry relative="1" as="geometry" />
        </mxCell>
        <mxCell id="WMqTVKStwHXneMCG5cs7-30" style="edgeStyle=orthogonalEdgeStyle;rounded=0;orthogonalLoop=1;jettySize=auto;html=1;" edge="1" parent="1" source="WMqTVKStwHXneMCG5cs7-2" target="WMqTVKStwHXneMCG5cs7-29">
          <mxGeometry relative="1" as="geometry" />
        </mxCell>
        <mxCell id="WMqTVKStwHXneMCG5cs7-36" style="edgeStyle=orthogonalEdgeStyle;rounded=0;orthogonalLoop=1;jettySize=auto;html=1;entryX=1;entryY=0.5;entryDx=0;entryDy=0;" edge="1" parent="1" source="WMqTVKStwHXneMCG5cs7-2" target="WMqTVKStwHXneMCG5cs7-35">
          <mxGeometry relative="1" as="geometry" />
        </mxCell>
        <mxCell id="WMqTVKStwHXneMCG5cs7-2" value="Treinador&lt;div&gt;Ator Primário&lt;/div&gt;" style="shape=umlActor;verticalLabelPosition=bottom;verticalAlign=top;html=1;" vertex="1" parent="1">
          <mxGeometry x="560" y="355" width="50" height="90" as="geometry" />
        </mxCell>
        <mxCell id="WMqTVKStwHXneMCG5cs7-3" value="Visualizar treino" style="ellipse;whiteSpace=wrap;html=1;" vertex="1" parent="1">
          <mxGeometry x="240" y="40" width="120" height="60" as="geometry" />
        </mxCell>
        <mxCell id="WMqTVKStwHXneMCG5cs7-40" style="edgeStyle=orthogonalEdgeStyle;rounded=0;orthogonalLoop=1;jettySize=auto;html=1;" edge="1" parent="1" source="WMqTVKStwHXneMCG5cs7-9" target="WMqTVKStwHXneMCG5cs7-32">
          <mxGeometry relative="1" as="geometry" />
        </mxCell>
        <mxCell id="WMqTVKStwHXneMCG5cs7-9" value="&lt;div&gt;Manter treino&lt;/div&gt;" style="ellipse;whiteSpace=wrap;html=1;" vertex="1" parent="1">
          <mxGeometry x="240" y="120" width="120" height="60" as="geometry" />
        </mxCell>
        <mxCell id="WMqTVKStwHXneMCG5cs7-17" value="Manter&amp;nbsp;&lt;span style=&quot;background-color: initial;&quot;&gt;aluno&lt;/span&gt;" style="ellipse;whiteSpace=wrap;html=1;" vertex="1" parent="1">
          <mxGeometry x="240" y="290" width="120" height="60" as="geometry" />
        </mxCell>
        <mxCell id="WMqTVKStwHXneMCG5cs7-29" value="Log&lt;span style=&quot;background-color: initial;&quot;&gt;ar&lt;/span&gt;" style="ellipse;whiteSpace=wrap;html=1;" vertex="1" parent="1">
          <mxGeometry x="240" y="367.5" width="120" height="65" as="geometry" />
        </mxCell>
        <mxCell id="WMqTVKStwHXneMCG5cs7-32" value="Visualizar alunos" style="ellipse;whiteSpace=wrap;html=1;" vertex="1" parent="1">
          <mxGeometry x="240" y="210" width="120" height="60" as="geometry" />
        </mxCell>
        <mxCell id="WMqTVKStwHXneMCG5cs7-41" style="edgeStyle=orthogonalEdgeStyle;rounded=0;orthogonalLoop=1;jettySize=auto;html=1;" edge="1" parent="1" source="WMqTVKStwHXneMCG5cs7-35" target="WMqTVKStwHXneMCG5cs7-37">
          <mxGeometry relative="1" as="geometry" />
        </mxCell>
        <mxCell id="WMqTVKStwHXneMCG5cs7-35" value="Manter Dieta" style="ellipse;whiteSpace=wrap;html=1;" vertex="1" parent="1">
          <mxGeometry x="240" y="450" width="120" height="60" as="geometry" />
        </mxCell>
        <mxCell id="WMqTVKStwHXneMCG5cs7-37" value="Visualizar Dieta" style="ellipse;whiteSpace=wrap;html=1;" vertex="1" parent="1">
          <mxGeometry x="240" y="530" width="120" height="60" as="geometry" />
        </mxCell>
      </root>
    </mxGraphModel>
  </diagram>
</mxfile>
